<svg role="img" viewBox="4.5 0 16.13 24.19" xmlns="http://www.w3.org/2000/svg"><path fill="#0acf83" d="M8.531 24.188c2.231 0 4.031 -1.8 4.031 -4.031V16.125H8.531C6.3 16.125 4.5 17.925 4.5 20.156S6.3 24.188 8.531 24.188zm0 0"/><path fill="#a259ff" d="M4.5 12.094C4.5 9.863 6.3 8.063 8.531 8.063H12.563v8.063H8.531C6.3 16.125 4.5 14.325 4.5 12.094zm0 0"/><path fill="#f24e1e" d="M4.5 4.031C4.5 1.8 6.3 0 8.531 0H12.563v8.063H8.531C6.3 8.063 4.5 6.262 4.5 4.031zm0 0"/><path fill="#ff7262" d="M12.563 0h4.031C18.825 0 20.625 1.8 20.625 4.031S18.825 8.063 16.594 8.063H12.563zm0 0"/><path fill="#1abcfe" d="M20.625 12.094c0 2.231 -1.8 4.031 -4.031 4.031S12.563 14.325 12.563 12.094 14.362 8.063 16.594 8.063 20.625 9.863 20.625 12.094zm0 0"/></svg>